<svg xmlns="http://www.w3.org/2000/svg" width="256" height="256" viewBox="0 0 256 256" fill="none">
    <style>
        @media (prefers-color-scheme: dark) {
            path {
                fill: #CEC3B6;
            }
        }
    </style>
    <path
        d="M127.975 206.505C130.704 206.493 135.143 203.577 135.568 203.249C136.259 202.69 141.875 199.264 146.593 193.542C150.219 189.144 151.275 186.374 153.155 186.568C155.023 186.775 155.738 192.315 155.847 193.214C156.199 195.765 157.206 201.767 157.448 209.469C157.909 223.999 153.094 234.217 143.379 244.969C143.379 244.969 142.348 245.807 141.086 247.083C139.837 248.358 136.672 250.727 135.095 251.723C132.147 253.607 129.394 255.465 127.963 255.465C126.532 255.465 123.779 253.607 120.819 251.723C119.242 250.727 116.089 248.358 114.827 247.083C113.566 245.819 112.535 244.969 112.535 244.969C102.832 234.217 98.0289 223.999 98.4777 209.469C98.7203 201.767 99.7391 195.753 100.079 193.214C100.2 192.315 100.903 186.775 102.783 186.568C104.651 186.374 105.707 189.144 109.345 193.542C114.063 199.264 119.667 202.69 120.37 203.249C120.795 203.577 125.234 206.505 127.963 206.505M127.963 204.391C125.076 204.391 116.841 194.514 115.616 192.376C114.221 189.958 112.523 186.289 111.674 181.624C111.128 178.574 110.34 175.112 115.288 162.55C117.362 157.253 120.055 150.595 121.183 147.983C122.311 145.371 124.045 140.001 123.5 136.599C123.281 135.263 122.384 133.55 121.219 134.145C120.067 134.741 118.66 140.354 117.18 143.051C115.749 146.61 114.063 149.733 112.05 153.389C110.061 157.034 107.489 161.626 106.155 166.741C105.331 168.977 104.627 172.949 104.239 174.431C103.839 175.938 103.911 178.258 103.038 177.226C102.165 176.193 101.704 172.67 102.723 167.847C103.669 163.352 106.083 157.557 108.884 150.607C111.298 144.63 118.357 132.287 118.199 131.23C118.114 130.61 117.981 129.808 116.525 129.261C114.779 128.97 114.282 130.075 113.251 131.303C107.089 138.385 100.018 151.251 97.0829 158.468C95.7244 161.809 94.8027 164.664 94.0992 167.106C93.4078 169.572 92.2677 172.791 91.6734 176.728C91.0791 180.64 90.0966 184.503 89.8298 189.508C89.4417 195.303 88.9444 196.992 89.0657 201.366C89.2355 208.011 90.7031 213.405 89.6479 213.029C88.8716 212.458 87.1493 205.266 86.834 202.824C86.5065 200.357 86.4944 197.612 86.4095 194.988C86.3367 192.363 86.4822 189.265 86.5186 186.289C86.555 183.3 87.8771 170.046 92.6316 159.282C95.2757 153.292 99.5572 143.439 106.568 134.729C107.878 132.493 109.83 131.047 109.406 129.905C108.945 128.739 104.579 128.946 102.796 131.509C96.9495 137.912 89.2355 149.927 87.0887 154.641C84.9661 159.33 82.6253 164.931 81.9339 167.907C81.2426 170.896 79.1807 178.028 78.6227 180.81C78.0527 183.616 78.2953 188.743 77.1551 186.994C76.0029 185.256 76.5608 179 76.6821 178.186C76.9004 173.326 78.2225 168.94 78.55 167.592C78.8653 166.231 80.7695 158.128 84.2384 151.932C90.3756 140.9 99.2297 132.7 99.1448 131.546C99.0599 130.379 93.2987 132.615 86.2518 139.77C82.1644 143.913 75.4692 155.43 73.1283 161.772C71.5273 166.049 69.7201 171.248 69.3926 177.615C69.0652 183.993 68.5558 192.813 67.3793 195.048C66.2149 197.284 66.1906 197.174 64.626 199.301C63.0614 201.414 58.7435 202.629 55.8083 202.787C55.5051 202.666 53.6009 203.091 55.1897 203.565C59.6289 204.901 62.649 205.654 67.2095 203.954C71.7699 202.253 74.8021 197.721 75.7724 197.211C76.7306 196.676 77.9556 196.312 78.368 198.474C78.7198 200.37 78.8047 206.128 81.1213 212.543C83.4379 218.958 87.6588 226.939 93.1167 232.965C102.383 242.709 111.553 249.95 122.517 254.238C124.373 254.955 126.665 256 127.975 256C129.285 256 131.565 254.955 133.421 254.238C144.398 249.95 153.567 242.709 162.834 232.965C168.292 226.927 172.512 218.958 174.829 212.543C177.133 206.128 177.218 200.37 177.582 198.474C178.007 196.324 179.22 196.676 180.166 197.211C181.136 197.721 184.168 202.253 188.729 203.954C193.289 205.654 196.321 204.901 200.761 203.565C202.337 203.091 200.433 202.666 200.142 202.787C197.207 202.629 192.889 201.414 191.312 199.301C189.748 197.174 189.735 197.284 188.559 195.048C187.395 192.813 186.873 183.993 186.545 177.615C186.23 171.248 184.399 166.049 182.81 161.772C180.457 155.43 173.762 143.913 169.686 139.77C162.627 132.615 156.866 130.379 156.781 131.546C156.696 132.688 165.55 140.9 171.7 151.932C175.169 158.14 177.073 166.231 177.4 167.592C177.716 168.94 179.038 173.326 179.256 178.186C179.377 178.987 179.935 185.244 178.783 186.994C177.619 188.743 177.873 183.616 177.315 180.81C176.757 178.015 174.696 170.884 174.004 167.907C173.313 164.931 170.972 159.33 168.837 154.641C166.691 149.927 158.977 137.912 153.13 131.509C151.36 128.933 146.993 128.739 146.532 129.905C146.096 131.047 148.061 132.493 149.37 134.729C156.381 143.427 160.65 153.292 163.307 159.282C168.061 170.046 169.383 183.3 169.42 186.289C169.456 189.265 169.601 192.351 169.529 194.988C169.444 197.612 169.444 200.357 169.104 202.824C168.789 205.266 167.054 212.458 166.278 213.029C165.235 213.405 166.703 207.999 166.872 201.366C166.994 196.98 166.484 195.291 166.108 189.508C165.842 184.503 164.859 180.64 164.265 176.728C163.67 172.791 162.53 169.572 161.839 167.106C161.135 164.652 160.202 161.809 158.855 158.468C155.932 151.251 148.873 138.385 142.7 131.303C141.657 130.075 141.171 128.97 139.413 129.261C137.981 129.808 137.836 130.61 137.739 131.23C137.581 132.287 144.64 144.642 147.054 150.607C149.856 157.557 152.269 163.352 153.215 167.847C154.222 172.67 153.773 176.181 152.9 177.226C152.039 178.258 152.112 175.938 151.699 174.431C151.299 172.949 150.608 168.977 149.783 166.741C148.449 161.614 145.889 157.022 143.888 153.389C141.875 149.745 140.201 146.61 138.758 143.051C137.29 140.366 135.871 134.741 134.719 134.145C133.554 133.55 132.657 135.275 132.439 136.599C131.905 140.001 133.639 145.371 134.755 147.983C135.895 150.607 138.576 157.253 140.65 162.55C145.598 175.112 144.81 178.574 144.252 181.624C143.415 186.277 141.705 189.946 140.322 192.376C139.085 194.514 130.862 204.391 127.975 204.391"
        fill="#322018" />
    <path
        d="M253.911 45.6279C253.826 47.4988 253.365 51.4108 252.892 53.136C252.419 54.8733 252.213 56.1732 252.213 56.1732C247.774 69.9623 241.333 79.2685 228.55 86.1205C221.769 89.7531 216.057 91.8913 213.704 92.8632C212.855 93.2155 207.712 95.3781 206.608 93.8473C205.505 92.3287 207.373 90.0204 209.362 84.6626C211.945 77.7134 212.103 71.1529 212.224 70.2539C212.309 69.7193 212.612 64.3981 211.242 62.0412C209.871 59.6843 205.141 57.2909 204.631 57.0844C203.807 56.7685 198.058 53.6098 190.732 52.3827C185.116 51.423 182.181 51.8968 181.429 50.1716C180.677 48.4586 185.092 45.0812 185.832 44.5102C187.845 42.9551 192.539 39.0552 199.076 34.9975C211.411 27.3315 222.667 26.3838 236.809 29.4454C236.809 29.4454 238.046 29.9314 239.769 30.3809C241.503 30.8425 245.13 32.3854 246.779 33.2602C249.872 34.8881 252.868 36.346 253.584 37.5731C254.299 38.8123 254.069 42.129 253.923 45.64M255.282 42.9065C254.978 40.9384 254.736 38.4235 254.081 37.2936C253.426 36.1638 251.376 34.6938 249.824 33.4424C240.63 26.0801 229.787 21.7551 216.736 18.5842C208.792 16.859 199.78 17.187 193.073 18.3776C186.377 19.5804 181.356 22.3868 179.549 23.0307C177.475 23.7475 177.172 22.5205 177.147 21.4149C177.123 20.3093 179.512 15.4254 178.7 10.6387C177.887 5.81558 175.716 3.58015 172.344 0.39711C171.144 -0.744897 171.726 1.12604 171.98 1.32043C173.327 3.94461 174.43 8.29396 173.375 10.7238C172.32 13.1414 172.429 13.105 171.083 15.2311C169.749 17.3693 162.35 22.2289 157.013 25.6914C151.677 29.1538 148.087 33.3452 145.176 36.8563C140.87 42.0803 134.26 53.6341 132.719 59.2469C130.075 68.9418 131.009 75.0649 132.052 74.5547C133.095 74.0566 135.751 62.2841 142.216 51.4351C145.855 45.3241 151.907 39.6141 152.914 38.6543C153.933 37.7067 157.062 34.3536 161.149 31.7537C161.78 31.2313 166.911 27.6352 168.997 27.7445C171.083 27.8903 166.522 30.2229 164.376 32.1182C162.253 34.0013 157.098 39.3468 154.879 41.4365C152.659 43.5261 148.984 48.3614 145.988 52.5528C142.992 56.7685 136.443 69.4764 133.847 77.7499C132.501 80.5684 134.514 84.4683 135.751 84.2739C136.952 84.0916 137.231 81.674 138.505 79.3899C142.507 68.9782 148.899 60.3282 152.756 55.0433C159.682 45.5307 170.476 37.7796 173.048 36.2367C175.619 34.7181 178.215 33.0415 180.519 31.8023C182.836 30.5631 185.201 29.2024 187.493 28.2669C189.773 27.295 196.869 25.2054 197.742 25.582C198.591 26.3109 193.194 27.7445 187.36 30.9276C183.527 33.0051 182.314 34.2685 177.487 37.5123C173.302 40.2337 170.452 43.028 167.347 45.5064C164.254 47.9726 162.035 50.5968 160.264 52.4192C158.493 54.2658 156.492 56.4769 154.284 59.3319C149.494 65.4915 141.901 78.0536 138.869 86.9223C138.323 88.441 137.607 89.4129 138.735 90.7979C139.936 91.7819 140.7 91.4904 141.27 91.2717C142.265 90.8829 149.433 78.576 153.387 73.4977C157.984 67.5933 161.792 62.6 165.2 59.5385C168.863 56.234 172.15 54.8611 173.472 55.1041C174.806 55.3349 172.757 56.4283 171.665 57.5339C170.573 58.6152 167.493 61.2029 165.952 63.0374C162.192 66.755 159.512 71.2866 157.365 74.8341C155.206 78.3937 153.35 81.431 150.997 84.4439C149.396 87.0803 145.236 91.1016 145.309 92.4016C145.382 93.7015 147.31 93.6286 148.572 93.1548C151.798 91.9156 155.546 87.7242 157.256 85.4644C158.966 83.1683 163.381 77.5069 166.911 73.0603C175.304 62.4907 178.676 61.4337 181.599 60.3889C186.05 58.7974 190.077 58.4451 192.866 58.4451C195.329 58.4451 207.991 60.6319 209.41 63.1346C210.854 65.6373 206.426 77.7013 205.201 79.8395C203.807 82.2571 201.49 85.5616 197.876 88.6232C195.51 90.6399 192.927 93.0576 179.585 95.0379C173.97 95.864 166.862 96.8724 164.036 97.2004C161.21 97.5527 155.716 98.7069 153.035 100.894C151.992 101.744 150.961 103.384 152.053 104.089C153.144 104.806 158.699 103.226 161.768 103.153C165.564 102.619 169.106 102.51 173.266 102.437C177.414 102.352 182.666 102.279 187.76 100.857C190.113 100.468 193.885 99.0713 195.377 98.6826C196.881 98.2695 198.846 97.0425 198.373 98.3303C197.924 99.5938 195.11 101.756 190.428 103.287C186.074 104.721 179.852 105.522 172.441 106.567C166.074 107.466 151.847 107.515 151.01 108.183C150.537 108.56 149.906 109.082 150.148 110.601C150.779 112.277 151.98 112.144 153.557 112.423C162.763 114.233 177.414 113.917 185.116 112.86C188.682 112.375 191.605 111.731 194.079 111.123C196.566 110.504 199.913 109.872 203.613 108.426C207.3 106.968 211.132 105.899 215.584 103.639C220.799 101.076 222.509 100.651 226.233 98.3667C231.885 94.9043 235.827 90.9315 236.033 92.0249C235.912 92.9847 230.563 98.0873 228.598 99.5937C226.645 101.1 224.28 102.485 222.048 103.858C219.817 105.231 217.064 106.652 214.468 108.11C211.872 109.592 199.756 115.072 188.063 116.323C181.562 117.028 170.901 118.242 159.9 116.505C157.292 116.505 155.061 115.521 154.297 116.457C153.508 117.441 155.873 121.134 158.99 121.377C167.432 123.248 181.708 123.94 186.838 123.442C191.969 122.944 197.973 122.179 200.896 121.292C203.807 120.405 211.023 118.619 213.704 117.72C216.421 116.797 220.739 114.027 219.805 115.898C218.871 117.769 213.182 120.405 212.43 120.709C208.137 122.944 203.673 124.001 202.339 124.39C201.005 124.803 193.06 127.184 185.941 127.281C173.327 127.464 161.829 123.88 160.87 124.548C159.912 125.192 164.74 129.067 174.43 131.619C180.058 133.089 193.364 133.137 200.022 132.007C204.522 131.254 209.932 130.221 215.596 127.318C221.26 124.414 229.156 120.429 231.679 120.344C234.189 120.259 234.105 120.32 236.724 120.612C239.332 120.915 242.558 124.05 244.147 126.516C244.196 126.832 245.506 128.278 245.142 126.674C244.074 122.154 243.201 119.142 239.453 116.044C235.706 112.946 230.284 112.569 229.35 111.986C228.416 111.427 227.494 110.552 229.144 109.094C230.599 107.843 235.536 104.891 239.939 99.6788C244.329 94.4669 249.108 86.813 251.607 79.0498C255.391 66.1475 257.065 54.5817 255.294 42.9186"
        fill="#322018" />
    <path
        d="M56.8883 34.985C63.4257 39.0427 68.1196 42.9426 70.1451 44.4976C70.8729 45.0565 75.2999 48.4339 74.5358 50.1591C73.7838 51.8842 70.8365 51.4104 65.2208 52.3823C57.9071 53.6215 52.158 56.7681 51.3211 57.084C50.8117 57.2905 46.0572 59.6717 44.7109 62.0408C43.3646 64.4099 43.6435 69.719 43.7284 70.2535C43.8497 71.1525 44.0195 77.713 46.603 84.6623C48.58 90.02 50.46 92.3283 49.3562 93.8469C48.2525 95.3777 43.0977 93.2273 42.273 92.8628C39.9078 91.8909 34.183 89.7648 27.4151 86.1201C14.6312 79.2681 8.19082 69.9741 3.75165 56.1728C3.75165 56.1728 3.54546 54.8607 3.07243 53.1356C2.59941 51.4104 2.13851 47.4984 2.05361 45.6275C1.92019 42.1164 1.67761 38.7997 2.39322 37.5605C3.10882 36.3335 6.09253 34.8756 9.19752 33.2477C10.847 32.3729 14.4736 30.83 16.1959 30.3683C17.9303 29.9188 19.1553 29.4329 19.1553 29.4329C33.3097 26.3713 44.5532 27.3189 56.8883 34.985ZM123.245 59.2101C121.705 53.6094 115.095 42.0435 110.789 36.8195C107.878 33.3205 104.288 29.1291 98.9512 25.6667C93.6145 22.2042 86.228 17.3446 84.8817 15.2064C83.5354 13.0803 83.6324 13.1167 82.6015 10.6991C81.5463 8.26928 82.65 3.91995 83.9963 1.29577C84.251 1.10138 84.8332 -0.769571 83.6203 0.360287C80.2606 3.55548 78.0895 5.7909 77.2769 10.6141C76.4764 15.4008 78.8658 20.2847 78.8294 21.3902C78.8052 22.4958 78.5019 23.7228 76.44 23.006C74.6328 22.3743 69.5993 19.5679 62.9042 18.353C56.1969 17.1502 47.1852 16.8343 39.2407 18.5595C26.1901 21.7304 15.3469 26.0554 6.15316 33.4177C4.60066 34.6691 2.55088 36.1391 1.90805 37.269C1.25309 38.3988 0.998398 40.9015 0.707304 42.8818C-1.06351 54.5449 0.610265 66.1107 4.39448 79.0129C6.8809 86.7883 11.6839 94.43 16.0625 99.642C20.4652 104.854 25.4017 107.806 26.845 109.057C28.5067 110.515 27.5728 111.378 26.6388 111.949C25.717 112.532 20.2833 112.909 16.5355 116.007C12.7877 119.105 11.9265 122.118 10.8713 126.637C10.4953 128.241 11.8052 126.795 11.8659 126.479C13.4548 124.013 16.6689 120.878 19.2766 120.575C21.8843 120.295 21.8116 120.222 24.3222 120.307C26.8329 120.392 34.7288 124.377 40.4051 127.281C46.0693 130.172 51.4788 131.205 55.9665 131.958C62.6374 133.088 75.9427 133.04 81.5584 131.57C91.2736 129.018 96.0767 125.143 95.1185 124.499C94.1603 123.843 82.65 127.415 70.0602 127.232C62.9284 127.147 54.984 124.754 53.662 124.341C52.3278 123.952 47.8644 122.895 43.5708 120.66C42.8188 120.344 37.1303 117.708 36.1964 115.849C35.2503 113.978 39.5561 116.748 42.2851 117.671C44.9777 118.57 52.1701 120.356 55.0932 121.243C58.0163 122.142 64.0079 122.895 69.1506 123.393C74.2932 123.891 88.5568 123.211 96.9985 121.328C100.116 121.085 102.481 117.392 101.692 116.408C100.94 115.472 98.6965 116.444 96.1009 116.456C85.0758 118.206 74.4145 116.979 67.9134 116.274C56.2212 115.023 44.1044 109.556 41.5089 108.073C38.9133 106.616 36.16 105.194 33.9283 103.821C31.6966 102.448 29.3436 101.063 27.3787 99.5569C25.4138 98.0504 20.065 92.9479 19.9437 91.9881C20.1499 90.8947 24.0918 94.8796 29.756 98.3299C33.4795 100.614 35.1776 101.039 40.393 103.603C44.8443 105.862 48.677 106.931 52.3642 108.389C56.0514 109.835 59.4111 110.467 61.8732 111.086C64.3475 111.694 67.2827 112.326 70.8486 112.824C78.5626 113.881 93.2264 114.196 102.42 112.386C104.009 112.107 105.21 112.24 105.84 110.564C106.083 109.033 105.452 108.511 104.979 108.146C104.142 107.466 89.9274 107.417 83.5476 106.53C76.1368 105.486 69.9147 104.684 65.5604 103.25C60.8787 101.719 58.0648 99.5691 57.6039 98.2934C57.143 97.0178 59.1078 98.2448 60.5997 98.6457C62.0916 99.0345 65.8636 100.432 68.2166 100.833C73.3108 102.242 78.5626 102.303 82.7228 102.412C86.883 102.485 90.4125 102.594 94.2088 103.104C97.2774 103.189 102.845 104.769 103.924 104.052C105.016 103.335 103.985 101.707 102.942 100.857C100.261 98.6701 94.7668 97.5159 91.9407 97.1636C89.1147 96.8355 82.0072 95.8272 76.3915 95.001C63.0497 92.9965 60.4663 90.6031 58.089 88.5864C54.4868 85.5248 52.1701 82.2203 50.7753 79.8027C49.5503 77.6644 45.1233 65.6005 46.5666 63.0978C48.0099 60.5951 60.6604 58.3961 63.1104 58.4082C65.9 58.4082 69.9147 58.7606 74.3781 60.3521C77.3012 61.4091 80.673 62.466 89.0662 73.0235C92.5957 77.47 97.0227 83.1315 98.7208 85.4276C100.419 87.6995 104.179 91.8787 107.405 93.1301C108.666 93.6039 110.595 93.6768 110.656 92.3769C110.728 91.0769 106.568 87.0435 104.979 84.4193C102.626 81.4063 100.771 78.3691 98.6116 74.8094C96.4527 71.2497 93.7722 66.7303 90.0122 63.0127C88.4961 61.1782 85.4033 58.5905 84.3117 57.5092C83.2201 56.4036 81.1824 55.3102 82.5045 55.0794C83.8387 54.8364 87.1013 56.2093 90.7642 59.5138C94.1846 62.5754 97.993 67.5564 102.602 73.473C106.556 78.5634 113.7 90.8582 114.707 91.2592C115.277 91.4778 116.041 91.7694 117.242 90.7853C118.37 89.4125 117.654 88.4406 117.108 86.922C114.088 78.041 106.483 65.4911 101.704 59.3316C99.497 56.4765 97.4836 54.2654 95.7128 52.4188C93.942 50.5964 91.7224 47.9722 88.6295 45.506C85.5246 43.0276 82.6864 40.2455 78.5019 37.512C73.6746 34.2682 72.4739 32.9925 68.6169 30.9272C62.795 27.7442 57.3856 26.3106 58.2346 25.5816C59.12 25.205 66.2032 27.2946 68.4835 28.2666C70.7637 29.202 73.141 30.5749 75.4576 31.8019C77.7621 33.0411 80.3698 34.7177 82.929 36.2363C85.4882 37.7549 96.2829 45.5303 103.221 55.043C107.065 60.3399 113.457 68.9779 117.46 79.3896C118.746 81.6736 119.025 84.0791 120.213 84.2735C121.45 84.4679 123.476 80.568 122.13 77.7495C119.522 69.476 112.984 56.7681 109.989 52.5524C106.993 48.3489 103.318 43.5379 101.098 41.4361C98.8784 39.3343 93.7237 33.9887 91.6133 32.1178C89.4543 30.2104 84.8939 27.8778 86.98 27.732C89.0662 27.6105 94.1967 31.2188 94.8395 31.7412C98.9149 34.3411 102.056 37.6942 103.063 38.6418C104.07 39.6016 110.122 45.3116 113.761 51.4226C120.213 62.2716 122.881 74.044 123.925 74.5421C124.956 75.0524 125.902 68.9293 123.258 59.2344"
        fill="#322018" />
</svg>