<svg id="footersvg" version="1.1" xmlns="http://www.w3.org/2000/svg" xmlns:xlink="http://www.w3.org/1999/xlink" x="0px" y="0px" viewBox="0 0 1682.4 924" style="enable-background:new 0 0 1682.4 924;" xml:space="preserve" width="100%" height="100%">
<style type="text/css">
	.st0{fill:none;stroke:#FFFFFF;stroke-width:1.5;stroke-miterlimit:10;}
</style>
<g id="Layer_1">
	<path class="st0" d="M97.4,147.2c4.2,176.9,3.7,353.8-1.3,530.6" style="stroke-dasharray: 531, 533; stroke-dashoffset: 0;"></path>
	<path class="st0" d="M174.2,184.8c35.5-3.2,71.2-3.9,106.8-2.1c1.7,50.6,1.1,101.2-1.7,151.8" style="stroke-dasharray: 259, 261; stroke-dashoffset: 0;"></path>
	<path class="st0" d="M215,0.4C291,42.3,375,67.4,454.5,102.4c7.9,3.5,17.3,10.2,14.6,18.4c-64.7-2.9-129.4-7.4-193.9-13.3" style="stroke-dasharray: 481, 483; stroke-dashoffset: 0;"></path>
	<path class="st0" d="M326.9,112.6c0.4,1,0.8,2,1.1,3v277.1" style="stroke-dasharray: 281, 283; stroke-dashoffset: 0;"></path>
	<path class="st0" d="M329.3,439.5c2.1,65.4,4.1,130.8,2.8,196.2c-0.7,35.1-2.5,70.2-5.2,105.2" style="stroke-dasharray: 302, 304; stroke-dashoffset: 0;"></path>
	<path class="st0" d="M166.1,735.1c54.8,0.3,109.5,3,164,8.1c43.9,4.1,88,9.7,131.9,5.8c5.6-0.5,11.3-1.2,16.4-3.5
		c7.7-3.5,13.3-10.2,19-16.4c16.2-17.6,34.9-32.8,55.5-45c-34.8,2.2-71,4.2-103.3-8.9c0.1-3.5-0.4-7.1-1.5-10.4
		c-5.9,0.1-11.8-0.3-17.5-1.3c-1.6-0.3-3.3-0.7-4.5-1.8c-1.3-1.3-1.5-3.4-1.6-5.3c-1.3-23,3.6-45.9,4.4-69
		c1.2-35.3-7.3-72.4,1.6-106.6" style="stroke-dasharray: 730, 732; stroke-dashoffset: 0;"></path>
	<path class="st0" d="M209.9,621.9c25.7,1,51.3,2,77,2.9c16.3,0.5,33.2,1,48.4-5.1c6-2.4,11.6-5.8,17.1-9.2
		c25.9-16.1,52-33.6,76-52.4" style="stroke-dasharray: 238, 240; stroke-dashoffset: 0;"></path>
	<path class="st0" d="M329,693.2c25.5-7,43-29.6,62.5-47.5c10.4-9.5,21.7-18.9,33.8-26.1" style="stroke-dasharray: 123, 125; stroke-dashoffset: 0;"></path>
	<path class="st0" d="M425.9,321.4c0.8-67.6,0.1-135.1-2-202.7" style="stroke-dasharray: 203, 205; stroke-dashoffset: 0;"></path>
	<path class="st0" d="M367.7,329.1c16.3,0.8,32.7-0.8,48.5-4.8c12.7-3.2,27.2-7.7,37.9-0.1c-4.3,8.8-0.9,20.7,7.4,25.9
		c2.7,1.7,5.8,2.8,8.4,4.6c8.8,6.3,9,20.2,3,29.2s-16.1,14.3-26,18.7c-20.5,9.1-42,16-63.7,21.7c-10,2.6-20.1,4.9-30.3,5.8
		c-8.9,0.7-17.9,0.3-26.9-0.1c-24.4-1.1-48.7-2.2-73.1-3.3" style="stroke-dasharray: 391, 393; stroke-dashoffset: 0;"></path>
	<path class="st0" d="M428.1,410.3c-3.3,10.6-2.4,20.2,0.7,30.9c0.5,1.9,1.2,3.8,2.7,5c1.6,1.4,3.9,1.6,6,1.8
		c11.3,0.9,22.7,1.8,34,2.7c4.3,0.3,9.1,1,11.4,4.6c2.7,4.2,0.1,9.9-3.4,13.5c-9.6,9.7-24.6,11.4-38.2,11.8c-11.5,0.4-22,0.3-31.5,0
		" style="stroke-dasharray: 178, 180; stroke-dashoffset: 0;"></path>
	<path class="st0" d="M425.8,211.4L1195.9,211.4" style="stroke-dasharray: 771, 773; stroke-dashoffset: 0;"></path>
	<path class="st0" d="M1218.3,210.4L1346.6,210.4" style="stroke-dasharray: 129, 131; stroke-dashoffset: 0;"></path>
	<path class="st0" d="M426.5,251.4c18.1-7.2,38,3.1,55.4,12.1c36.9,19.1,76.5,33.1,117.2,41.5c8.2,1.7,18.8,6.2,17.4,14.5
		c-1.1,6.8-9.4,9-15.9,11.2c-14.8,4.9-26.5,15.9-39.4,24.5s-16.8,10.7-37.6,8.7c-6-0.6-14.5-2.7-25-6.8
		c-17.2-6.6-28.3-19.2-46.4-22.8" style="stroke-dasharray: 394, 396; stroke-dashoffset: 0;"></path>
	<path class="st0" d="M589.5,334.9c10.5,8.7,24.5,11.6,37.5,15.7c41.6,13.2,78,41.9,121,49.2c-3,8.9-11.2,15.1-20.1,18.1
		s-18.4,3.2-27.7,3.4c-46.9,0.9-93.8,1.8-140.7,2.6" style="stroke-dasharray: 369, 371; stroke-dashoffset: 0;"></path>
	<path class="st0" d="M542.6,364.2c-1.8,14.3-0.7,28.7-3.5,42.9" style="stroke-dasharray: 44, 46; stroke-dashoffset: 0;"></path>
	<path class="st0" d="M428,569.5l15.5-1.9c-2.6,2.4-1.8,7.4,1.4,8.9s7.5-1,7.8-4.5c11.5,5.6,25.2,2.2,37.5-1.3c0,5,7.4,7.9,10.9,4.4
		c-1.6,2.8-1.8,6.7,0.4,9.2s6.8,2.4,8.4-0.5c-1.5,6,2.8,12.9,8.9,14.3c-2.3,1.5-5,2.5-7.7,2.8c0,1.8-0.5,3.7-1.4,5.3
		c1.2-0.8,2.9-0.7,4,0.1c0.6,2.1-1.4,3.8-2.9,5.4c-4.3,4.6-4.3,12.6,0,17.2s12.3,5.2,17.2,1.2c-1.8,3.6-0.8,8.8,2.9,10.6
		s9-1.2,8.5-5.3c4.9,6.9,13.5,11.1,22,10.5c6.7,3,12.5,7.8,16.7,13.8c0.7,1,1.4,2.1,2.6,2.6c1.2,0.6,2.6,0.4,3.9,0.1
		c14.7-2.5,29.4-4.9,44.1-7.4c0.3,3.8,3.3,7.1,6.8,8.7s7.4,1.8,11.3,1.9c15.3,0.2,32.5-3.5,41-16.3c3,2.7,7.5-0.2,10.4-3
		s5.7-6.5,9.7-6.6c2.4-0.1,4.7,1.2,7.1,1.1c2.1-0.1,4.1-1.1,5.8-2.3c14.8-9.8,23.1-28.7,20.2-46.2c-1-6.1-3.4-12.2-8-16.4
		c-5.7-5.2-13.9-6.7-21.6-5.8c0.3-5.3-6.1-9.7-11-7.5c-2.1,1-3.6,2.9-5.3,4.5c-6.8,6.9-16.8,10.7-26.5,10
		c-4.9-5.8-14.2-7.3-20.8-3.3c-2-5.7-7.7-9.4-13.6-10.5s-12-0.2-17.9,1c3.8-2.5,1.2-9.1-3.2-10.3s-8.8,1.1-12.7,3.5
		s-8.1,4.8-12.6,4.1c-0.1-1.6-0.2-3.2-0.4-4.8c-1.7-1.1-4-1.2-5.8-0.2c3.7-3.1,4.8-8.8,2.5-13s-7.7-6.4-12.3-5
		c5.6-1.4,9.8-7,9.7-12.7c3.3,0.4,6.7,0.7,9.8-0.4s5.9-4,5.6-7.3c-0.1-1.1-0.5-2.2-0.5-3.3c0-2,1.2-3.7,2.3-5.3
		c3-4.3,6-9.2,5.6-14.5s-5.7-10.4-10.7-8.6c3-2.6,5.3-6.8,3.8-10.5c-1-2.3-3.2-3.8-4.6-5.9s-1.7-5.5,0.6-6.5c-5-1-10.6-0.8-14.9,2.1
		s-6.6,8.9-4.1,13.4c-2.4-6.6-11.2-8.9-17.8-6.5s-11.4,8-16,13.4c-1.1-2.1-3.7-3.3-6-2.8c3.1-1.2,6.5-2.6,8.2-5.5s0.2-7.6-3.1-7.8
		c4.4,0.2,7.9-5.3,5.8-9.2s-8.6-4-10.8-0.2c3.3-3.2,3.9-8.8,1.4-12.6c4.7-2.5,9.3-5.1,14-7.6c3.2-1.7,6.4-3.5,8.7-6.2
		s3.4-6.8,1.7-10s-6.6-4.4-9-1.8c2.6-1.6,5.1-3.5,7.3-5.7c-4.6-3.6-11.1-4.5-16.5-2.4c2.2-3.6-1.8-8.4-6-8.5s-7.8,3-10.5,6.2
		c5.1-0.3,6.7-8.2,3-11.6s-9.9-2.7-14.1,0.1c2.5-4.5-0.6-10.5-5.2-12.9s-10.1-2-15.2-1.4s-10.5,1.4-15.4-0.2c-2.1-0.7-4-1.7-5.9-2.8
		" style="stroke-dasharray: 1132, 1134; stroke-dashoffset: 0;"></path>
	<path class="st0" d="M716.4,420.6c1.9,8.2-0.1,16.3,0.5,23.9c0.3,4.1,0.9,8.1,0.4,12.1c-1.2,9-1.4,18.2-1.5,27.3
		c-0.1,7.7-0.3,15.4-0.4,23.1c-0.1,5.4-0.2,10.7-0.3,16.1c-0.3,15.4-0.6,30.8,1.1,46.1" style="stroke-dasharray: 149, 151; stroke-dashoffset: 0;"></path>
	<path class="st0" d="M736.2,413.2c0.9,10.8,1.8,21.5,2.7,32.3c0.6,7.2,1.2,14.4,1,21.6c-0.2,4.7-0.7,9.5-1.2,14.2
		c8.1,0.7,16.3,0.3,24.3-1.2c6-1.1,12.7-2.6,17.7,0.9c-1.2,25.2-2.5,50.4-3.7,75.7" style="stroke-dasharray: 187, 189; stroke-dashoffset: 0;"></path>
	<path class="st0" d="M714.3,557.1c26.3,1.9,52.8,1.4,79-1.3c-1.4,3.2,0.5,6.7,1.6,9.9c1.6,4.5,1.8,9.4,1.8,14.3
		c0.2,12.2-0.2,24.3-1.1,36.5" style="stroke-dasharray: 141, 143; stroke-dashoffset: 0;"></path>
	<path class="st0" d="M779.9,504.4c6.1,0.8,11.3,1.2,17.5,1.1c-4.2,3.2-5.6,8.8-8.1,13.5c-3.4,6.4-8,11.3-11.5,17.6" style="stroke-dasharray: 55, 57; stroke-dashoffset: 0;"></path>
	<path class="st0" d="M788.4,493.5c14.1,1.2,28.3,1.1,42.3-0.1c0.2,15.9,0.5,31.8,0.7,47.7" style="stroke-dasharray: 91, 93; stroke-dashoffset: 0;"></path>
	<path class="st0" d="M716.7,391.2l39.2,0.6c4.1,0.1,8.2,0.1,12.1,0.9c3.7,0.7,7.2,2.1,10.8,3.4c11.5,4.4,23.1,8.7,34.7,13.1
		c4.8,1.8,9.6,3.6,14.7,4.1c-4.6,2.6-8,7.2-9,12.4c-27.2-1.3-54.5-1.5-81.7-0.6" style="stroke-dasharray: 213, 215; stroke-dashoffset: 0;"></path>
	<path class="st0" d="M805.3,425c0.6,23,0.6,46,0,69" style="stroke-dasharray: 70, 72; stroke-dashoffset: 0;"></path>
	<path class="st0" d="M826.3,413.9c1,15.4,1,30.9-0.1,46.3" style="stroke-dasharray: 47, 49; stroke-dashoffset: 0;"></path>
	<path class="st0" d="M817.5,459.9c8.5,0,16.9,0,25.4,0" style="stroke-dasharray: 26, 28; stroke-dashoffset: 0;"></path>
	<path class="st0" d="M773.4,394.1l13.2-16.5c0.6-0.8,1.3-1.6,2.2-1.9c1-0.4,2.1-0.1,3.1,0.2c15.6,4,31.5,6.9,47.5,8.6
		c-1.8,4.3-3.6,8.6-5.3,12.9c-0.3,0.7-0.6,1.4-1.2,1.9c-0.9,0.7-2.1,0.6-3.2,0.5c-14.9-1.6-30-2-45-1.3" style="stroke-dasharray: 141, 143; stroke-dashoffset: 0;"></path>
	<path class="st0" d="M839.1,385.5c1.4,7.7,0.2,14.5,0,22.3c-0.2,8.5-0.4,16.9-0.7,25.4" style="stroke-dasharray: 48, 50; stroke-dashoffset: 0;"></path>
	<path class="st0" d="M838.5,418.9l13.1,0.9c-0.2,1.4-0.2,2.7-0.2,4.1c0.1,6.7,0.2,13.4,0.3,20.1" style="stroke-dasharray: 38, 40; stroke-dashoffset: 0;"></path>
	<path class="st0" d="M615.9,316c5.8-1.6,12.2,1.4,16.1,6.1s5.5,10.8,6.2,16.8c4.4-7.6,13.6-10.5,21.5-14.3c8-3.9,14.4-10.2,22.9-13
		c-0.4,10.9,0.7,22.8,1.4,33.7c-25.4-1.2-49.8-1.4-75.3-0.4" style="stroke-dasharray: 199, 201; stroke-dashoffset: 0;"></path>
	<path class="st0" d="M626,317.1l-0.2-25.5c0-2.9,0.3-6.3,2.7-7.7c1.1-0.7,2.5-0.7,3.8-0.8c8.6-0.3,17.1,0,25.6,1
		c0.4,13.7,0.4,27.4-0.2,41.1" style="stroke-dasharray: 105, 107; stroke-dashoffset: 0;"></path>
	<path class="st0" d="M653,360.1c15.3,0,30.6,0.1,45.8,0.1l-0.5,12.1c0,0.8,0,1.8,0.6,2.3c0.5,0.4,1.1,0.4,1.6,0.4
		c19.7,0.1,39.5-0.2,59.2-0.9c0.9-5.5,1-11.2,0.4-16.8c6.5,0.4,13,0.9,19.5,1.3c0,9.1,0,18.1,0,27.2" style="stroke-dasharray: 185, 187; stroke-dashoffset: 0;"></path>
	<path class="st0" d="M683.6,311.5c16.6,1.9,33.4,2.4,50.1,1.6c2.1,20.4,2.3,41.1,0.8,61.5" style="stroke-dasharray: 112, 114; stroke-dashoffset: 0;"></path>
	<path class="st0" d="M683.5,345.1c17,0.1,34.1,0.3,51.1,0.4" style="stroke-dasharray: 52, 54; stroke-dashoffset: 0;"></path>
	<path class="st0" d="M683.6,311.5c-2.7-1.4-3.6-5-2.6-7.8s3.6-4.8,6.4-5.8s5.8-1.2,8.8-1.4c29.1-1.8,58.1-3.4,87.2-4.8
		c1.3-0.1,2.9,0,3.7,1c0.5,0.7,0.5,1.6,0.6,2.4c0.7,5.4,5.5,10,11,10.4c9.1,0.6,18,1.9,27.1,2.5c4.3,0.3,8.8,0.7,12.3,3.1
		s5.6,7.6,3.2,11.1c5.5,0.2,10.9,0.4,16.4,0.6c-0.3,3.2-0.3,6.5,0.1,9.8c1.2-2.5,5.2-2.4,7.2-0.5s2.9,4.8,4,7.4
		c1.9,4.5,5.3,8.6,9.9,9.9c1.9,0.5,3.8,0.5,5.7,0.5c12.7,0.1,25.4,0,38.1-0.3c2.4,0,5.2-0.3,6.7-2.2c0.5-0.7,0.8-1.6,1.2-2.4
		c4.6-13.3,9.1-26.6,13.7-39.9c0.8-2.4,1.8-4.9,3.9-6.2c1.7-1,3.7-1.1,5.7-1.2c8.1-0.2,16.2-0.5,24.4-0.7c-0.1-3,2-5.5,4.5-7
		s5.5-2.1,8.4-2.6c11.5-1.9,23.2-2.7,34.8-2.6c7.3,0.1,14.7,0.6,21.8-1.3c2.6,7.6,8.3,14.1,15.6,17.5c1.8,0.8,3.6,1.5,5.6,1.7
		c2.4,0.2,4.8-0.3,7.2-0.8c4.2-0.9,8.3-1.8,12.5-2.7c0.2,6,0.9,12,2,17.9c3.2,0,6.8,0.1,9.5,1.8c1.5,0.9,2.6,2.2,3.8,3.4
		c0.8,0.9,1.7,1.9,2.6,2.8c1.3,1.4,2.6,2.9,3,4.7c0.3,1.1,0.2,2.3,0.2,3.4c-0.3,6.4-0.5,12.8-2.2,19c-0.5,1.9-1.2,3.9-2.8,4.9
		c-0.1,0.1-0.3,0.2-0.3,0.4s0.4-0.1,0.2-0.1c5-1.8,9.4-3.4,14.4-5.1c0.3-0.1,0.7-0.2,0.9-0.5c0.2-0.2,0.3-0.5,0.4-0.8
		c3.5-8.5,7-17.1,7.3-26.3c0-0.5,0.1-1.2,0.5-1.5c0.3-0.2,0.6-0.2,1-0.3c4.8-0.3,9.6-0.7,14.4-1c3.6-0.2,7.2-0.5,10.7,0.1
		c-1.4-0.5-2.4-2-2.7-3.4s-0.1-3,0.1-4.5c-2.6-0.4-5.4-1-8-1.6c-1.9-0.4-3.9-0.9-5.7-1.7c-2-0.9-3.8-2.2-5.8-3
		c-1.8-0.7-3.8-1.2-5-2.7c-1.2-1.6-1.1-3.9-0.2-5.6s2.5-3.1,4.1-4.2c1.3-0.9,2.6-1.7,4.1-2.3c2.5-0.9,5.2-1.1,7.8-1.1
		c17-0.5,34,0.1,50.9,1.8" style="stroke-dasharray: 761, 763; stroke-dashoffset: 0;"></path>
	<path class="st0" d="M698,296.3c0-4.7,0.1-9.4,0.3-14.1c11.8,1.5,23.2,0.2,35.6,0.5c3.4,0.1,11.6-0.4,15-0.7
		c9.5-0.9,10.5-0.3,18.1-0.8c-0.1,3.8-0.2,7.5-0.3,11.3" style="stroke-dasharray: 95, 97; stroke-dashoffset: 0;"></path>
	<path class="st0" d="M760,357c3.8-3.8,7.3-7.8,10.6-12c7.4,1.3,14.9,1.8,22.4,1.4c-3.6,2.8-7,5.7-10,9.1c-1.1,1.3-2.2,2.7-3.7,3.4" style="stroke-dasharray: 58, 60; stroke-dashoffset: 0;"></path>
	<path class="st0" d="M793.5,376.3c25.1,1.5,50.3,2.3,75.5,2.9c-0.1-2.2,0-4.3,0.1-6.5c-12.1-2.6-24.5-5.3-35-11.8
		c-1.4-0.9-2.9-1.9-3.3-3.5c12.1,1.4,24.2,2.5,36.3,3.3c0-1.9,0.1-3.8,0.1-5.7c-12.8-2.9-25.7-6-37-12.6c-1.7-1-3.3-2-5-2.8
		c-4.9-2-10.5-1.6-15.5-0.1s-9.7,4-14.5,6.3c-0.7,0.4-1.5,0.7-2.3,0.8c0.4,9.6-0.6,19.3-2.8,28.7" style="stroke-dasharray: 275, 277; stroke-dashoffset: 0;"></path>
	<path class="st0" d="M837.7,310.5c5.3-1.4,10-4.5,15-6.9s10.7-4,16-2.4c1,0.3,1.9,0.8,2.7,1.5c0.6,0.6,1,1.3,1.4,1.9
		c2.2,3,6.1,4.3,9.8,4.4s7.3-1,10.9-2s7.3-1.8,11-1.3c6.8,0.9,12.3,6.2,18.9,7.8c6.1,1.5,12.5-0.1,18.3-2.2" style="stroke-dasharray: 112, 114; stroke-dashoffset: 0;"></path>
	<path class="st0" d="M867.7,335.9c9.1-0.1,18.3-0.2,27.3,0.8c7,0.8,14,2.3,21,1.6c1.7-0.2,3.5-0.5,5.2-0.7
		c3.8-0.5,7.8-0.5,11.6-0.5" style="stroke-dasharray: 66, 68; stroke-dashoffset: 0;"></path>
	<path class="st0" d="M968,297.6l2.6-39c31.7-0.4,63.3-0.4,95-0.1c0.9,2.3,0.9,4.9,0.9,7.4c-0.1,12.1-0.2,24.3-0.3,36.5" style="stroke-dasharray: 179, 181; stroke-dashoffset: 0;"></path>
	<path class="st0" d="M962.7,329.1c1.8-1.1,3.5-2.4,5.2-3.7c7.1-5.1,14.7-9.4,22.3-13.7c2.7-1.5,5.4-3.1,8.2-4.5
		c0.8-0.4,1.5-0.8,2.4-0.8c0.9,0,1.7,0.3,2.5,0.7c19,8.6,37.9,17.7,56.5,27.1c1.1,0.5,2.3,1.3,2.3,2.5c-2.5,0.1-5,0.2-7.4,0.3
		c-20.3,0.9-40.6,1.8-60.9,1.8c-11.3,0-22.7-0.3-34-0.9c-2.8-0.1-5.6-0.2-8.3-0.5c-2.1-0.2-3.8-0.1-2-2.1c1.2-1.4,5.4-2.2,7.2-3
		C958.6,331.6,960.7,330.5,962.7,329.1L962.7,329.1z" style="stroke-dasharray: 244, 246; stroke-dashoffset: 0;"></path>
	<path class="st0" d="M1054.2,337.1L1054.2,573.2" style="stroke-dasharray: 237, 239; stroke-dashoffset: 0;"></path>
	<path class="st0" d="M951,338.3c-0.1,19.1-0.1,38.2-0.2,57.2c0,4.1,0,8.1,0.3,12.2c0.4,4.7,1.2,9.4,1.3,14.1c0.1,4-0.5,8-0.8,12
		c-0.6,6.8-0.7,13.5-0.4,20.3" style="stroke-dasharray: 116, 118; stroke-dashoffset: 0;"></path>
	<path class="st0" d="M950.5,361.2c34.4,0.1,68.7-0.1,103.1-0.5" style="stroke-dasharray: 104, 106; stroke-dashoffset: 0;"></path>
	<path class="st0" d="M953.7,403.6c14.4-8.7,28.3-18.2,41.6-28.6c2.3-1.8,4.6-3.6,7.4-4.4c1.6-0.4,3.2-0.5,4.8-0.5
		c7-0.2,14-0.3,21-0.5c0.3,0,0.8,0.1,0.9,0.4s-0.8,0.4-0.5,0.1v254.4" style="stroke-dasharray: 342, 344; stroke-dashoffset: 0;"></path>
	<path class="st0" d="M953.2,403.5c16.4-2.6,33.1,0.5,49.8,0.3c8.5-0.1,17.1-1,25.6-1.9" style="stroke-dasharray: 76, 78; stroke-dashoffset: 0;"></path>
	<path class="st0" d="M972.9,402.8c0.8,8.5,0.5,17-0.9,25.4c-0.6,3.4-1.3,6.7-1,10.1c0.3,3.4-0.1,5.5,0.5,8.7" style="stroke-dasharray: 45, 47; stroke-dashoffset: 0;"></path>
	<path class="st0" d="M1028.6,431.7l-28.5-0.6c-0.4,44.4-0.7,88.8-1.1,133.2c0,1,0,2.4,0.2,4" style="stroke-dasharray: 166, 168; stroke-dashoffset: 0;"></path>
	<path class="st0" d="M938.4,460.5c1.6-16.1,1.2-32.3,0.9-48.4c3.9-0.2,7.9-0.3,11.8-0.5" style="stroke-dasharray: 61, 63; stroke-dashoffset: 0;"></path>
	<path class="st0" d="M999.7,445.9c-1.1-3.4-5.3-4.6-8.9-4.9c-2.4-0.2-4.8-0.2-7,0.8s-3.9,3.2-3.7,5.6c-2.3-0.5-4.7-1-7-0.6
		s-4.6,2-5.2,4.3c-3.9-2.9-10.5-0.6-11.7,4.1c-2.3-1.4-5.4-1.5-7.8-0.2s-3.9,4-3.9,6.7c-1.6-1.5-4.1-2-6.1-1.2s-3.6,2.8-3.8,5
		c-2.5-2.8-7.3-3.1-10.1-0.6s-2.6,6-0.2,8.8c-0.8-0.1-0.7-0.5,0,0c-3.6-0.4-7.4-0.7-10.6,1.1s-4.9,6.4-2.4,9c-2,0.1-4.1,0.2-5.9,1.2
		s-3.2,3-2.7,4.9s2.6,4.3,3.9,2.8c0.2,0.3,0.5-0.6,0.2-0.8s-0.1-0.7,0.2-0.7c-0.1,0.5-0.3,1-0.4,1.4c-2.2,0.5-4.5,1.5-5.5,3.5
		c-0.8,1.8-0.4,4,1,5.4s3.7,1.6,5.4,0.6c-0.8,1.5-1.2,3.3-1,5.1c0.2,1.9,1.1,3.9,2.8,4.7s4.3-0.5,4.2-2.4c-0.8,2.6-0.5,5.4,0.9,7.8
		c1.6,2.7,7-0.1,5.9,7.3c-0.2,1.3,1.1,2.5,2.3,3.1c0.7,0.3,1.5,0.3,2.3,0.2c3.5-0.2,7.5-0.7,9.8-3.4c0.3,2.1,2.9,3.1,5,3.1
		c5.1,0,10.1-3.2,12.4-7.8c-0.4,3.5,3.2,6.3,6.7,6.5s6.7-1.5,9.8-3.2c2-1.1,3.9-2.1,5.9-3.2c1.1-0.6,2.2-1.2,2.9-2.2
		c0.7-1,0.9-2.2,1.3-3.3c1.2-3.5,4.1-6.2,6.6-9.1c1.5-1.8,2.9-3.7,4.3-5.5c0.6-0.8,1.1-1.5,1.7-2.3c2.7-3.7,5.4-7.3,7.8-11.2" style="stroke-dasharray: 311, 313; stroke-dashoffset: 0;"></path>
	<path class="st0" d="M1198.3,51.1l-156.7-7c-3.2-0.1-6.6-0.3-9.3-2.2s-4-6-1.8-8.4c61.3-1.9,122.6-0.9,183.8,3
		c1.7,0.1,3.5,0.3,4.7,1.4c1.7,1.5,1.8,4,1.7,6.2c-2.2,144.2-4.5,288.4-6.7,432.5" style="stroke-dasharray: 805, 807; stroke-dashoffset: 0;"></path>
	<path class="st0" d="M1187.4,486.5c-0.3-7.2,0.2-14.5,0.7-21.7c3.9-53.3,5.8-106.8,5.7-160.3c0-18.5-0.3-37,0.5-55.5
		c2.2-53.6,4.7-90.7,4.6-153.1c0-13.1-0.1-33.5-2.3-46.4" style="stroke-dasharray: 438, 440; stroke-dashoffset: 0;"></path>
	<path class="st0" d="M918.3,349.7c7.6,32.8,2.6,67.4,10.1,100.2c1.1,4.8,2.5,9.5,2.7,14.4" style="stroke-dasharray: 116, 118; stroke-dashoffset: 0;"></path>
	<path class="st0" d="M930.2,345.3c1.7,7.7,1.2,15.7,0.9,23.6c-1.3,31.2-0.8,62.5-0.3,93.8" style="stroke-dasharray: 118, 120; stroke-dashoffset: 0;"></path>
	<path class="st0" d="M1104.2,357.8c9.6,14.1,26.7,20.7,40.6,30.6c0.7,0.5,1.5,1.1,1.8,1.9c0.4,0.8,0.3,1.7,0.3,2.5
		c-1,21-2,42-2.9,63c-0.1,1.3-0.2,2.6-1.1,3.5c-0.9,0.9-2.4,1-3.7,0.9c-16.6-0.2-32.8-0.8-49.3-0.2c-1.1,0-3.1,0.7-4.1,1.3
		c-0.8,0.5-1.3,1.3-1.8,2.1c-4,6.5-5.8,14-9.1,20.9c-6,12.6-12.3,24.8-20.8,36" style="stroke-dasharray: 249, 251; stroke-dashoffset: 0;"></path>
	<path class="st0" d="M1119.2,353c17.4-0.8,34.8-0.6,52.2,0.5c7.2,0.4,14.5,1,21.4-0.8" style="stroke-dasharray: 74, 76; stroke-dashoffset: 0;"></path>
	<path class="st0" d="M1215.9,353.4c38.6,0.6,77.2,0.6,115.9-0.2" style="stroke-dasharray: 116, 118; stroke-dashoffset: 0;"></path>
	<path class="st0" d="M1216.2,318.6c6.5-0.9,11.2-6.6,15.3-11.8c0.6-0.8,1.3-1.6,2.2-2c0.8-0.3,1.7-0.3,2.6-0.2
		c7.4,0.4,14.9,1.2,22.2,2.5c1.1,5.2-0.7,10.5-1.5,15.8s-0.2,11.5,4.1,14.6c1.2,0.9,2.9,1.5,4.3,0.9c0.9-0.3,1.5-1,2.2-1.7
		c4.6-4.7,9.2-9.4,13.8-14c2.2-2.2,4.4-4.5,5.9-7.2c0.5-1,1-2,1.9-2.7c1.1-0.9,2.6-1.1,4-1.2c12.8-1.2,25.8-1.7,38.7-1.6" style="stroke-dasharray: 163, 165; stroke-dashoffset: 0;"></path>
	<path class="st0" d="M1331.5,378.2c0-0.2,0-0.4,0-0.6V275.5c-2-2.1-5.8-2.8-8.6-3.5c-23.4-5.4-46.9-9.9-70.6-13.6
		c-2.5-0.4-5.8-1.7-5.5-4.2c0.2-1.2,1.1-2,2-2.7c2-1.6,4.3-2.8,6.6-3.9c3.3-1.7,6.7-3.4,10.1-5c38.1-17.9,79.7-30.5,118.2-47.6" style="stroke-dasharray: 342, 344; stroke-dashoffset: 0;"></path>
	<path class="st0" d="M1382.7,512.9c2.9-104.2,3.4-208.5,1.5-312.8c0-2.4-0.1-4.9-1.2-7.1c-0.9-1.8-2.4-3.2-3.9-4.6
		c-7.3-7.1-13.1-15.8-16.9-25.3c8.2-1.8,16.4-3.5,24.7-5.3c21.6-4.6,41.9-12.6,63.3-18.2c21.1-5.5,42.2-11,63-17.6
		c37.6-11.9,74.1-27.2,112.4-36.4c9.2-2.2,18.5-4.1,27.8-5.9c9.6-1.9,19.3-3.8,28.9-5.8" style="stroke-dasharray: 690, 692; stroke-dashoffset: 0;"></path>
	<path class="st0" d="M1369.4,177.9c55,10.3,111.1-5.3,166.3-14.4c38.3-6.3,77.2-9.5,115.6-15.5" style="stroke-dasharray: 285, 287; stroke-dashoffset: 0;"></path>
	<path class="st0" d="M1385,264.1c11.2,2.7,22.6,3.7,34.1,4.8c43.2,3.8,87,7.6,129.8,0" style="stroke-dasharray: 165, 167; stroke-dashoffset: 0;"></path>
	<path class="st0" d="M1384.4,302.9c48,11.6,98.3,13.7,147.1,6.2" style="stroke-dasharray: 149, 151; stroke-dashoffset: 0;"></path>
	<path class="st0" d="M1348.8,377.5c-29.3,2.2-58.7,2.8-88.1,1.7c-1.8,21.1-1.5,42.4,0.9,63.4c0.1,0.9,0.2,1.9,0.7,2.7
		c0.7,1.3,2,2.1,3.2,2.8c9.4,5.1,19.9,8.1,28.8,13.9c5.6,3.6,10.6,8.3,16.9,10.2c6.9,2.1,14.3,0.5,21.5-0.1c5-0.4,10.1-0.3,15.1-0.1
		c12,0.3,24,0.6,36,0.9" style="stroke-dasharray: 284, 286; stroke-dashoffset: 0;"></path>
	<path class="st0" d="M1263.1,378.6c11.1,12,30.8,10.8,43.8,20.6c2.9,2.2,5.5,5,8.9,6.3c2.5,1,5.3,1,8,1.1
		c20.3,0.4,40.6,0.9,60.8,1.3" style="stroke-dasharray: 129, 131; stroke-dashoffset: 0;"></path>
	<path class="st0" d="M1317.6,406c-0.7,22.5-0.8,44.9-0.6,67.4" style="stroke-dasharray: 68, 70; stroke-dashoffset: 0;"></path>
	<path class="st0" d="M1029,580.5c-5.1-2.9-13.6-0.5-16,4.8c-2.6-2.2-6.5-2.6-9.5-1s-4.8,5.1-4.4,8.5c-1.9-0.4-3.9-0.9-5.8-0.4
		s-3.7,2.1-3.6,4.1c-1.5-2.1-4.4-3.1-6.8-2.3s-4.3,3.3-4.2,5.9c-2.2-0.4-4.6,1.5-4.6,3.8s2.3,4.2,4.5,3.9c-1.2,2.5-1.7,5.6-0.4,8.1
		s4.9,3.8,7.1,2.1c-0.7,4.6,3.6,9.3,8.2,9c-1.3,1.8-0.9,4.6,0.9,5.9s4.6,0.9,5.9-0.8c2.9,5,10.2,6.7,15,3.6c3.7,3.9,10.2,4.6,13.1,0
		" style="stroke-dasharray: 156, 158; stroke-dashoffset: 0;"></path>
	<path class="st0" d="M1029,688c-0.6-21.6-0.8-41.8-0.1-63.4" style="stroke-dasharray: 64, 66; stroke-dashoffset: 0;"></path>
	<path class="st0" d="M0.1,826.3l214.5-23.4c90.9-9.9,182.2-19.9,271.2-40.8c23.4-5.5,46.7-11.8,70.2-16.4
		c43.8-8.7,88.9-12.1,131.4-25.8c42.5-13.7,84.1-42.5,106.8-80.9c23.3-39.4,47.7-101,51.3-157" style="stroke-dasharray: 1000, 1002; stroke-dashoffset: 0;"></path>
	<path class="st0" d="M881.1,349.4c-12.6,86.3-25.3,172.8-49.1,256.6c-8.5,29.9-18.5,59.6-34.1,86.4s-37.2,50.9-64.6,65.4
		c-96.8,51.2-207.8,76.1-312.4,108.5c-21.7,6.7-43.4,13.5-65.1,20.2c-6.6,2-13.2,4.1-19.8,6.1" style="stroke-dasharray: 868, 870; stroke-dashoffset: 0;"></path>
	<path class="st0" d="M943.6,527.4c11,39.2,15.4,74.8,29.3,111.2c18.8,49,54.5,91.3,99.6,118.1c28.5,17,60.2,26,88.9,42.8
		c10,5.9,19.9,12,29.7,18.2c18.8,11.7,37.5,23.5,56.2,35.2c19.5,12.2,39,24.4,57.5,38c14.8,10.9,29.1,22.7,44.5,32.8" style="stroke-dasharray: 597, 599; stroke-dashoffset: 0;"></path>
	<path class="st0" d="M1179.4,687.7c-3.8,3.8-8,7.2-12.6,10.1c-1.8,1.2-3.8,2.3-6,2.5s-4.6-0.8-5.5-2.8c-1.9,3.8-5.9,6.6-10.2,7
		s-8.7-1.5-11.4-4.8c-1.7,2.3-4.9,2.7-7.7,2.9c-7.3,0.5-14.7,1-22,1.5c0-2.3,0.1-4.6,0.1-6.9c-5.3,3-13,0.2-15.1-5.6
		c-2.8,1.6-6.5,1.5-9.2-0.3c-1.1-0.7-2-1.6-3.2-2c-3.6-1.2-7.5,2.5-11.1,1.2c-0.2-2.4-0.4-4.9-0.7-7.3c-5.4,1.9-11.9-2-12.9-7.6
		c-4.1,0.5-8.1-2.3-10.2-5.9s-2.8-7.8-3.4-11.9c-1.3-8.8-2.5-17.7-1.7-26.6s4-17.8,10.3-24.1c-5.1-1.3-6.3-8.1-5.4-13.3
		c1-5.7,2.9-12.1,6.8-16.4s10.1-6.2,15.9-5.9c-2.2-1.7-1.1-5.7,1.5-6.8s5.6-0.3,8.1,1c-0.3-3.8,4.4-5.8,8.2-6.3
		c1.3-0.2,2.7-0.2,4-0.7c1.4-0.5,2.7-1.3,4-2.1c5.8-3.3,12.7-4.3,19.3-5.3c-1.1,0-2.1,0-3.2-0.1" style="stroke-dasharray: 350, 352; stroke-dashoffset: 0;"></path>
	<path class="st0" d="M977.9,516.9L976.6,600" style="stroke-dasharray: 84, 86; stroke-dashoffset: 0;"></path>
	<path class="st0" d="M1668.2,190.6c-0.2,0.2-0.5,0.5-0.8,0.8v657.8" style="stroke-dasharray: 659, 661; stroke-dashoffset: 0;"></path>
	<path class="st0" d="M1384.6,406.8c17.3,9.2,34.4,16.8,53.1,22.7" style="stroke-dasharray: 58, 60; stroke-dashoffset: 0;"></path>
	<path class="st0" d="M1428.9,499.2c13.9,2.6,28.1,2.3,42.2,2c44.6-0.9,89.3-1.9,133.9-2.8" style="stroke-dasharray: 177, 179; stroke-dashoffset: 0;"></path>
	<path class="st0" d="M1406,818.6c-0.5-32.2,0.2-63.5-2.1-95.7c19-0.2,38.1-0.4,57.1-0.6c0.6,0,1.2,0,1.6-0.4c0.4-0.4,0.4-1,0.4-1.5
		l-2.2-147" style="stroke-dasharray: 304, 306; stroke-dashoffset: 0;"></path>
	<path class="st0" d="M994.3,633.3c19.5,45.4,56.4,83,101.5,103.4c18,8.1,37.1,13.6,56.2,19c11.4,3.2,22.9,6.5,34.3,9.7
		c41.6,11.8,113.1,40.5,159.9,56.1c28.7,9.6,56.7,18.2,85.6,27.1c13.2,4.1,26,9.1,38.9,14c36.9,14.1,74.1,27.3,111.4,40.3
		c17,5.9,34.4,11.9,52.4,12.7" style="stroke-dasharray: 717, 719; stroke-dashoffset: 0;"></path>
	<path class="st0" d="M1277.4,596.3c9.2,1.8,19.2-1.6,25.5-8.6c8.1,2.4,17.2,1.7,24.8-2c0.4,5.6,8.6,8.8,12.6,4.8
		c-0.1,5.2,5.5,9,10.7,9.4s10.3-1.5,15.5-2.2c7.6-1.1,15.5,0.3,22.9-1.9c11.7-3.5,19.3-15.5,21.3-27.5s-0.6-24.4-3.2-36.3
		c-0.6,1-2.3,0.6-2.9-0.4s-0.8-2.2-1.1-3.3c-1.3-4.8-7.4-7.5-11.8-5.2c3-3.8,0.7-6.4-3.6-8.7s-9.3-3.5-11,1c-1.1-5-8.9-6.7-12-2.6
		c1.9-7.4-7.3-14.9-14.2-11.5c1.7-4.3,0.5-9.6-2.9-12.7s-8.7-4-12.9-2c-0.8-3.9-4-7.1-7.9-7.9s-8.1,1.1-10.2,4.4
		c-4.5-3.6-10.8-3.6-16.4-2.4s-11,3.4-16.7,3.7l-0.9-6.5c-6.7-0.4-13.2,5.4-13.5,12.2c-6.5-1.7-13.8-0.3-19.2,3.7
		c-2-2.8-6.6-3-8.9-0.5c-0.3-4-4.8-7-8.6-5.9c-2.8-7.5-12.2-9.5-20.2-10.5c-3.1-0.4-6.2-0.7-9.3-1.1c-3.1-0.4-6.4-0.7-9,0.9
		c-3.6,2.2-4.4,7.1-4.8,11.4c-3.8-2.9-10.2-0.5-11.2,4.1c-0.6-6.4-7.1-11-13.6-11.5s-12.7,1.8-18.7,4.2c-7.6,3-15.2,6-22.8,9
		c-0.1,2.5,1.8,4.8,4.2,5.3c-5.5,9-19.4,10.2-24.4,19.5c-2.1,3.9-2.2,8.6-2.2,13c0,3,0,6.1,1.2,8.8s4.2,4.9,7.1,4.2
		c-2.1,6.1,2.2,13.6,8.5,14.8c-0.5,3.4-0.3,7.9,2.7,9.6s7.1,1.2,9.7-1c1.3,6.9,4.6,13.8,10.3,18s14,5.3,19.8,1.4
		c2.9,4.3,8.2,6.7,13.3,6.1s9.8-4.2,11.6-9.1c0.2,3.7,1.9,7.6,5.1,9.6s7.9,1.6,10.1-1.5c2.3,4.6,7,7.9,12.1,8.6s10.5-1.2,14-5
		c2.8,5.4,8.5,9.2,14.6,9.8s12.4-2,16.3-6.7c2.8,3.2,7.3,4.7,11.4,3.8S1276.3,600.4,1277.4,596.3L1277.4,596.3z" style="stroke-dasharray: 865, 867; stroke-dashoffset: 0;"></path>
	<path class="st0" d="M1381.3,596.2l-0.7,2.1v127.5c-0.8-0.3-1.4,0.5-1.2,1.4s1,1.4,1.8,1.9c-0.4,1.9-0.8,3.9-1.2,5.8" style="stroke-dasharray: 141, 143; stroke-dashoffset: 0;"></path>
	<path class="st0" d="M1297.8,591.9c-1.8,8.8,1.3,16.7,2.4,25.6c1.5,11.7,1.9,32.1,1,43.8c-1.6,20.5-2.7,32.5-1.4,53
		c1.8,27.9,3.6,55.7,5.3,83.6" style="stroke-dasharray: 207, 209; stroke-dashoffset: 0;"></path>
	<path class="st0" d="M1180.4,590.6c-0.3,14.7,0.3,29.4-0.6,44.1l-1,96" style="stroke-dasharray: 141, 143; stroke-dashoffset: 0;"></path>
	<path class="st0" d="M1209.5,601.1c0.9,47.4,1.7,94.8,2.6,142.2" style="stroke-dasharray: 143, 145; stroke-dashoffset: 0;"></path>
	<path class="st0" d="M1239,606c1.8,53,3.1,106,4.1,159" style="stroke-dasharray: 160, 162; stroke-dashoffset: 0;"></path>
	<path class="st0" d="M1257.4,599.9c4.5,55.4,4.9,110.2,5.8,165.8" style="stroke-dasharray: 166, 168; stroke-dashoffset: 0;"></path>
	<path class="st0" d="M1282.8,597c2.6,52.9-1.1,105.8-7.9,158.4c-1.2,9.4-1.7,20.4-3.4,29.9" style="stroke-dasharray: 189, 191; stroke-dashoffset: 0;"></path>
	<path class="st0" d="M1038.3,28c-0.9-2.6-0.1-5.7,2-7.5c0.4-0.3,0.8-0.6,1.2-0.8c2.7-1.5,6.3-1.1,8.7,1s3.2,5.6,2.1,8.5
		c-0.2,0.6-0.5,1.2-1,1.7c-0.7,0.6-1.5,0.8-2.4,0.9C1044.7,32.6,1040.1,33.2,1038.3,28L1038.3,28z" style="stroke-dasharray: 46, 48; stroke-dashoffset: 0;"></path>
	<path class="st0" d="M1113.9,32.6c-2.4-0.2-3.8-0.5-5.4-2.2s-2-4.9-0.2-6.5c1.4-1.3,3.5-1.3,5.4-1.2c1.7,0.1,3.4,0.3,5.1,0.5
		c1.5,0.2,3.2,0.6,4,1.9c0.5,0.8,0.4,1.9,0.4,2.9c-0.1,1.5-0.3,3.1-1.5,3.9c-0.6,0.4-1.3,0.5-2,0.6
		C1117.7,32.6,1115.8,32.6,1113.9,32.6" style="stroke-dasharray: 44, 46; stroke-dashoffset: 0;"></path>
	<path class="st0" d="M1174,23.9c0.2-0.5,0.3-1.1,0.8-1.4c0.4-0.3,0.9-0.4,1.4-0.4c2.6-0.3,5.2-0.1,7.8,0.4c1.6,0.4,3.3,1,4,2.5
		C1191.9,33.9,1169.4,40.8,1174,23.9L1174,23.9z" style="stroke-dasharray: 45, 47; stroke-dashoffset: 0;"></path>
</g>
<g id="Layer_2">
	<path class="st0" d="M720,210.3c2.3-26.5,17.8-53.5,43-61.8c7.9-2.6,16.3-3.3,24.7-3.5c9.6-0.3,19.4,0.1,28.7,2.6
		c18.2,4.9,33.7,18.5,41.4,35.7c3.8,8.7,5.8,18.2,5.6,27.7" style="stroke-dasharray: 219, 221; stroke-dashoffset: 0;"></path>
	<path class="st0" d="M743.3,227.5c31.6,1.3,63.3,1.3,95-0.2" style="stroke-dasharray: 96, 98; stroke-dashoffset: 0;"></path>
	<path class="st0" d="M770.7,245.7c19,0.6,38.1,0.2,57.1-1.1" style="stroke-dasharray: 58, 60; stroke-dashoffset: 0;"></path>
</g>
</svg>