<svg id="Layer_1" data-name="Layer 1" xmlns="http://www.w3.org/2000/svg" viewBox="0 0 1366 768" width="1366"
    height="768">
    <defs>
        <style>
            .cls-1 {
                fill: transparent;
            }

            .cls-2 {
                fill: #322018;
            }
        </style>
    </defs>
    <rect class="cls-1 svg-elem-1" width="1366" height="768"></rect>
    <path class="cls-2 svg-elem-2"
        d="M912.75,310v-.37c0-.94-1.1-1.5-2.67-1.5H887.39c-1.69,0-2.67.56-2.67,1.5V310c0,1.46,1.8,2.34,3.15,3.74,8.23,7.21,9.3,9,3.72,9.18-.5,0-.46,0-1.05,0-1.2,0-1.2,1-1.2,1a.1.1,0,0,0,0,0v41.7c0,4-4.61,4.86-4.61,7.1v.28c0,1,1,1.59,2.66,1.59h22.69c1.58,0,2.67-.56,2.67-1.59v-.28c0-2.24-5.1-3.09-5.1-7.1V317.1c0-3.93,5.1-4.77,5.1-7.11">
    </path>
    <path class="cls-2 svg-elem-3"
        d="M859.41,365.55l-29-53.41c-1.58-2.8-3.76-4-7.4-4H810.41c-1.46,0-2.42.66-2.42,1.5V310c0,1.21,2.22,2.55,3.56,4.2,0,0,4.81,4.72,6.75,8.71,1.16,2.41,8.52,17.53,14.14,29.08h-28s10-20.89,10.83-22.77-4.94-7.71-4.94-7.71l-22.26,44.05c-2.19,4.49-6.55,4.77-6.55,7.1v.28c0,1,1.09,1.59,2.67,1.59H800.1c1.82,0,2.79-.56,2.79-1.59v-.28c0-2.33-6.8-3.18-4.86-7.1l3.52-7.48h33.84c2.16,4.45,3.64,7.48,3.64,7.48,1.94,3.92-4.85,4.77-4.85,7.1v.28c0,1,1.09,1.59,2.67,1.59h26.56c1.58,0,2.67-.56,2.67-1.59v-.28c0-2.33-4.24-2.71-6.68-7.1">
    </path>
    <path class="cls-2 svg-elem-4"
        d="M761.31,365.36l-11.65-47.8c-1-4.3,4.61-5.14,4.61-7.58v-.37c0-.94-1.09-1.5-2.55-1.5h-14c-2.79,0-4.61,1-5.58,3.09l-19.41,44.06L693.13,311.2c-1-2.05-3-3.09-6-3.09H673.84c-1.58,0-2.55.66-2.55,1.59V310c0,1.61,2.27,2.52,3.61,4.09a50.72,50.72,0,0,1,8.4,12.48c2.13,4.29.86,1.74.26.52l-.18-.35-.08-.18.08.18a3.67,3.67,0,0,1,.18.35L705.74,372a4.6,4.6,0,0,0,4.49,2.43,3.65,3.65,0,0,0,3.88-2.53l20.5-43.68,8.49,37.13c1,4.12-4.25,5-4.25,7.3v.28c0,1,1.21,1.58,2.79,1.58h21.84c1.7,0,2.79-.56,2.79-1.58v-.28c0-2.34-4-3.19-5-7.3">
    </path>
    <path class="cls-2 svg-elem-5"
        d="M674.43,323.4l-8.72,42c-.84,4.12-4.85,5-4.85,7.29v.28c0,1,1,1.59,2.67,1.59h13.7c1.71,0,2.67-.56,2.67-1.59v-.28c0-2.33-5.22-3.18-4.36-7.29,0,0,5.22-26,5.76-28.78s-4.82-11.94-6.88-13.19">
    </path>
    <path class="cls-2 svg-elem-6"
        d="M640,365.55l-29-53.41c-1.58-2.8-3.76-4-7.41-4H591c-1.46,0-2.43.66-2.43,1.5V310c0,1.21,2.23,2.55,3.57,4.2,0,0,4.81,4.72,6.74,8.71L613,352H585s10-20.89,10.83-22.77-3.81-8-4.62-8.33l-22.59,44.66c-2.18,4.49-6.55,4.77-6.55,7.11v.28c0,1,1.1,1.58,2.67,1.58h15.89c1.82,0,2.79-.56,2.79-1.58v-.28c0-2.34-6.79-3.19-4.85-7.11l3.51-7.48H616l3.64,7.48c1.94,3.92-4.86,4.77-4.86,7.11v.28c0,1,1.1,1.58,2.67,1.58H644c1.57,0,2.67-.56,2.67-1.58v-.28c0-2.34-4.25-2.72-6.68-7.11">
    </path>
    <path class="cls-2 svg-elem-7"
        d="M497.7,308.12H470c-1.69,0-2.79.56-2.79,1.5V310c0,2.34,4.73,3.18,4.73,7.11v48.45c0,3.92-4.73,4.77-4.73,7.1v.28c0,1,1.1,1.59,2.79,1.59h20V317.75c0-3,2.18-3.93,4.85-3.93h2.31a33.41,33.41,0,0,1,33.84,33.58c0,13.75-11,21.41-25.84,21.41h-5.79c-1.93.2-3.61,4.69-4,5.71h8c27.66,0,46.7-13.09,46.7-33.11s-20.26-33.3-52.4-33.3">
    </path>
    <path class="cls-2 svg-elem-8"
        d="M715.34,259.71v-.1c0-.68,1.53-.8,1.53-2.08V240.62c0-1.28-1.53-1.43-1.53-2.09v-.09c0-.28.32-.43.8-.43h17.6c.73,0,1,.24,1.13.78l1,3.37c.11.47-.16.72-.65.72H735c-1.62,0-2.75-3.3-5.1-3.3h-6.79c-.81,0-1.38.34-1.38,1.21v7.27H728c1.74,0,1.9-2.05,2.83-2.05H731a.56.56,0,0,1,.61.59V251a.58.58,0,0,1-.61.6h-.24c-.93,0-1.09-2-2.83-2h-6.23l0,7.29a1.63,1.63,0,0,0,1.82,1.65h7.64c2.39,0,3.2-3.43,4.94-3.43h.28a.58.58,0,0,1,.61.72l-.93,3.46a1,1,0,0,1-1.17.82H716.24c-.53,0-.89-.16-.89-.44">
    </path>
    <path class="cls-2 svg-elem-9"
        d="M675.9,259.71v-.1c0-.68,1.5-.84,1.5-2.05v-17c0-1.22-1.5-1.38-1.5-2.07v-.09c0-.28.33-.43.85-.43h6.31c.53,0,.85.15.85.43v.09c0,.69-1.58.85-1.58,2.07l0,7.45H696.4V240.6c0-1.22-1.49-1.38-1.49-2.07v-.09c0-.28.32-.43.84-.43h6.31c.53,0,.89.15.89.43v.09c0,.69-1.66.85-1.66,2.07v17c0,1.21,1.66,1.37,1.66,2.05v.1c0,.28-.36.43-.89.43h-6.31c-.52,0-.84-.15-.84-.43v-.1c0-.68,1.49-.84,1.49-2.05v-7.79H682.33l0,7.79c0,1.21,1.62,1.37,1.62,2.05v.1c0,.28-.32.43-.85.43h-6.31C676.23,260.14,675.9,260,675.9,259.71Z">
    </path>
    <path class="cls-2 svg-elem-10"
        d="M651,259.71v-.1c0-.68,1.58-.84,1.58-2.05V239.69h-4.41c-2.26,0-2.59,3.49-4,3.49h-.49c-.48,0-.77-.25-.68-.72l.73-3.68c.08-.53.4-.78,1.13-.78h20.31c.72,0,1,.25,1.16.78l.89,3.71c.12.43-.2.69-.68.69h-.48c-1.42,0-1.94-3.49-4.21-3.49h-4.41v17.86c0,1.22,1.62,1.37,1.62,2.06v.09c0,.28-.32.43-.89.43H651.9c-.53,0-.85-.15-.85-.43">
    </path>
    <path class="cls-2 svg-elem-11"
        d="M690,510.26a7.37,7.37,0,0,0,3-1.3,21.29,21.29,0,0,0,4.39-3.87c1.45-1.75,1.87-2.86,2.62-2.78s1,2.29,1.08,2.65a53.86,53.86,0,0,1,.63,6.48c.19,5.8-1.73,9.87-5.61,14.16,0,0-.41.34-.91.84a17.48,17.48,0,0,1-2.39,1.85,3.45,3.45,0,0,1-5.69,0,17.48,17.48,0,0,1-2.39-1.85c-.51-.5-.92-.84-.92-.84-3.87-4.29-5.78-8.36-5.6-14.16a55.85,55.85,0,0,1,.63-6.48c0-.36.33-2.57,1.08-2.65s1.17,1,2.62,2.78A21,21,0,0,0,687,509a7.37,7.37,0,0,0,3,1.3m0-.84c-1.15,0-4.43-3.94-4.92-4.79a13.46,13.46,0,0,1-1.57-4.29c-.22-1.22-.53-2.6,1.44-7.61.83-2.11,1.9-4.77,2.35-5.81a10.2,10.2,0,0,0,.93-4.54c-.09-.53-.45-1.21-.91-1s-1,2.48-1.62,3.56a37.42,37.42,0,0,1-2,4.12,23.69,23.69,0,0,0-2.35,5.32c-.33.9-.61,2.48-.77,3.07s-.13,1.53-.48,1.12-.53-1.82-.12-3.75a47.82,47.82,0,0,1,2.46-6.87c1-2.38,3.77-7.31,3.71-7.73a.84.84,0,0,0-.67-.78c-.69-.12-.89.32-1.3.81a47.07,47.07,0,0,0-6.45,10.83,35.22,35.22,0,0,0-1.19,3.45,28.24,28.24,0,0,0-1,3.84,46.33,46.33,0,0,0-.73,5.09,43.14,43.14,0,0,0-.31,4.73c.07,2.65.66,4.8.23,4.65a16.08,16.08,0,0,1-1.12-4.07c-.13-1-.13-2.08-.17-3.12s0-2.28.05-3.47a33.6,33.6,0,0,1,2.43-10.77,43.08,43.08,0,0,1,5.56-9.79c.53-.89,1.3-1.47,1.13-1.93s-1.92-.38-2.63.64a49.5,49.5,0,0,0-6.27,9.23,37.13,37.13,0,0,0-2,5.29c-.28,1.19-1.1,4-1.32,5.14s-.13,3.17-.59,2.47-.23-3.19-.19-3.51a20.49,20.49,0,0,1,.75-4.23,25.88,25.88,0,0,1,2.27-6.24c2.45-4.4,6-7.67,5.94-8.13s-2.33.42-5.14,3.28a33.21,33.21,0,0,0-5.23,8.77,20.46,20.46,0,0,0-1.49,6.32c-.13,2.54-.34,6.06-.81,6.95a8.72,8.72,0,0,1-1.09,1.7c-.63.84-2.35,1.33-3.52,1.39-.12,0-.88.12-.25.31,1.77.53,3,.83,4.8.15s3-2.48,3.41-2.68.87-.36,1,.5a24.33,24.33,0,0,0,1.09,5.61,25.85,25.85,0,0,0,4.79,8.14c3.69,3.89,7.35,6.78,11.72,8.49a3.73,3.73,0,0,0,4.35,0c4.38-1.71,8-4.6,11.73-8.49a25.85,25.85,0,0,0,4.79-8.14,24.91,24.91,0,0,0,1.09-5.61c.17-.86.66-.72,1-.5s1.6,2,3.42,2.68,3,.38,4.8-.15c.63-.19-.13-.36-.25-.31-1.17-.06-2.89-.55-3.52-1.39a8.78,8.78,0,0,1-1.1-1.7c-.46-.89-.67-4.41-.8-6.95a20.75,20.75,0,0,0-1.49-6.32,33.5,33.5,0,0,0-5.24-8.77c-2.81-2.86-5.11-3.75-5.14-3.28s3.49,3.73,5.95,8.13a26.82,26.82,0,0,1,2.27,6.24,20.7,20.7,0,0,1,.74,4.23c0,.32.27,2.81-.19,3.51s-.36-1.35-.58-2.47-1-3.95-1.32-5.14a37.36,37.36,0,0,0-2.06-5.29,49.5,49.5,0,0,0-6.27-9.23c-.7-1-2.45-1.1-2.63-.64s.61,1,1.13,1.93a42.7,42.7,0,0,1,5.56,9.79,33.7,33.7,0,0,1,2.44,10.77c0,1.19.07,2.42,0,3.47a28.79,28.79,0,0,1-.17,3.12,15.24,15.24,0,0,1-1.13,4.07c-.41.15.17-2,.24-4.65a45.27,45.27,0,0,0-.3-4.73,46.16,46.16,0,0,0-.74-5.09,28.24,28.24,0,0,0-1-3.84,34.34,34.34,0,0,0-1.19-3.45,46.66,46.66,0,0,0-6.44-10.83c-.41-.49-.61-.93-1.31-.81a.87.87,0,0,0-.67.78c-.06.42,2.76,5.35,3.72,7.73a47.82,47.82,0,0,1,2.46,6.87c.4,1.93.22,3.33-.13,3.75s-.31-.52-.48-1.12-.43-2.17-.76-3.07a24.15,24.15,0,0,0-2.35-5.32,36.68,36.68,0,0,1-2.05-4.12c-.59-1.07-1.15-3.32-1.61-3.56s-.82.46-.91,1a10.33,10.33,0,0,0,.92,4.54c.46,1.05,1.53,3.7,2.35,5.81,2,5,1.66,6.39,1.44,7.61a13.32,13.32,0,0,1-1.57,4.29c-.49.85-3.77,4.79-4.92,4.79">
    </path>
    <path class="cls-2 svg-elem-12"
        d="M740.21,446.1a18.37,18.37,0,0,1-.4,3,11.85,11.85,0,0,0-.27,1.21c-1.77,5.5-4.34,9.21-9.44,11.94a57.2,57.2,0,0,1-5.92,2.69c-.34.14-2.39,1-2.83.39s.3-1.52,1.1-3.66a20.88,20.88,0,0,0,1.14-5.75,7.39,7.39,0,0,0-.39-3.27,7.57,7.57,0,0,0-2.64-2A21.37,21.37,0,0,0,715,448.8c-2.24-.38-3.41-.2-3.71-.88s1.46-2,1.75-2.26a57,57,0,0,1,5.28-3.8c4.92-3.05,9.41-3.43,15-2.21,0,0,.5.19,1.18.37a19.19,19.19,0,0,1,2.8,1.15,8.86,8.86,0,0,1,2.71,1.72,8.61,8.61,0,0,1,.14,3.22m.54-1.09a8.36,8.36,0,0,0-.48-2.24,8.53,8.53,0,0,0-1.7-1.54c-3.66-2.93-8-4.66-13.19-5.92a25.66,25.66,0,0,0-9.44-.08,24.48,24.48,0,0,0-5.39,1.85c-.83.29-.95-.2-1-.64s.94-2.39.62-4.3-1.19-2.81-2.54-4.08c-.47-.46-.24.29-.14.36.54,1.05,1,2.79.56,3.75a9,9,0,0,1-.92,1.8c-.53.85-3.48,2.79-5.61,4.17a20.65,20.65,0,0,0-4.72,4.46,33.68,33.68,0,0,0-5,8.93c-1,3.86-.68,6.3-.26,6.1s1.47-4.89,4-9.22a26.73,26.73,0,0,1,4.27-5.1,20.84,20.84,0,0,1,3.28-2.75c.25-.21,2.3-1.64,3.13-1.6s-1,1-1.84,1.75-2.91,2.88-3.79,3.71a37.71,37.71,0,0,0-3.55,4.44,49.1,49.1,0,0,0-4.84,10c-.54,1.13.27,2.68.76,2.61s.59-1,1.1-1.95a42.69,42.69,0,0,1,5.68-9.71,33.61,33.61,0,0,1,8.09-7.5c1-.61,2.07-1.28,3-1.77s1.87-1,2.79-1.41a15.35,15.35,0,0,1,4.08-1.07c.34.29-1.81.86-4.14,2.13a42.58,42.58,0,0,0-3.93,2.63,45.24,45.24,0,0,0-4,3.19,27.84,27.84,0,0,0-2.82,2.75,33.11,33.11,0,0,0-2.39,2.76,46.87,46.87,0,0,0-6.15,11c-.21.61-.5,1-.05,1.55a.88.88,0,0,0,1,.19c.4-.16,3.26-5.07,4.83-7.09a47.28,47.28,0,0,1,4.72-5.57c1.46-1.32,2.77-1.86,3.29-1.77s-.28.53-.72,1-1.66,1.47-2.28,2.2a24.07,24.07,0,0,0-3.42,4.7,37.41,37.41,0,0,1-2.54,3.83c-.64,1.06-2.3,2.66-2.27,3.18s.8.49,1.3.3a10.29,10.29,0,0,0,3.47-3.07c.68-.91,2.44-3.17,3.85-4.95,3.34-4.21,4.69-4.63,5.85-5.05a13.56,13.56,0,0,1,4.5-.77c1,0,6,.87,6.6,1.87s-1.19,5.8-1.68,6.66a13.49,13.49,0,0,1-2.92,3.5c-1,.8-2,1.77-7.3,2.56-2.24.33-5.07.73-6.2.86a10.17,10.17,0,0,0-4.39,1.47c-.41.34-.82,1-.39,1.28s2.65-.35,3.88-.38a37.19,37.19,0,0,1,4.58-.28,22.71,22.71,0,0,0,5.78-.63c.94-.16,2.44-.71,3-.87s1.38-.65,1.19-.14-1.3,1.37-3.16,2a47.81,47.81,0,0,1-7.18,1.31c-2.54.35-8.21.37-8.54.64a.88.88,0,0,0-.35,1c.25.66.73.61,1.36.72a46.86,46.86,0,0,0,12.59.18,32.77,32.77,0,0,0,3.57-.7,27.43,27.43,0,0,0,3.8-1.07,48.36,48.36,0,0,0,4.78-1.91,44.14,44.14,0,0,0,4.24-2.1c2.26-1.38,3.83-3,3.91-2.53a16.37,16.37,0,0,1-3,3c-.78.6-1.72,1.15-2.61,1.7s-2,1.11-3,1.69A33,33,0,0,1,714,474.3a42.42,42.42,0,0,1-11.23.07c-1,0-1.93-.39-2.23,0s.63,1.87,1.87,2a49,49,0,0,0,11.1.83,37.7,37.7,0,0,0,5.61-.86c1.16-.36,4-1.07,5.11-1.43s2.8-1.47,2.43-.72-2.64,1.79-2.94,1.92a19.7,19.7,0,0,1-4,1.46,26.1,26.1,0,0,1-6.54,1.16c-5,.07-9.62-1.36-10-1.09s1.54,1.8,5.41,2.82a33.65,33.65,0,0,0,10.2.15,20.3,20.3,0,0,0,6.21-1.87c2.26-1.16,5.41-2.75,6.42-2.78a9.21,9.21,0,0,1,2,.11c1,.12,2.33,1.37,3,2.35,0,.13.54.7.4.07-.43-1.81-.78-3-2.27-4.24s-3.66-1.39-4-1.62-.74-.57-.08-1.16a24.1,24.1,0,0,0,4.3-3.75,25.78,25.78,0,0,0,4.65-8.23c1.51-5.14,2.18-9.76,1.47-14.41">
    </path>
    <path class="cls-2 svg-elem-13"
        d="M661.64,441.86a56.68,56.68,0,0,1,5.29,3.79c.29.23,2.05,1.57,1.75,2.26s-1.48.5-3.72.89a21.53,21.53,0,0,0-5.54,1.87,7.36,7.36,0,0,0-2.64,2,7.54,7.54,0,0,0-.39,3.27,21.08,21.08,0,0,0,1.15,5.75c.79,2.14,1.54,3.06,1.1,3.66s-2.5-.24-2.83-.39a54.14,54.14,0,0,1-5.92-2.69c-5.1-2.73-7.67-6.44-9.44-11.94a11.85,11.85,0,0,0-.27-1.21,19.52,19.52,0,0,1-.41-3,3.47,3.47,0,0,1,2.85-4.93,18.45,18.45,0,0,1,2.79-1.15,12,12,0,0,0,1.18-.37C652.24,438.42,656.72,438.8,661.64,441.86Zm26.46,9.66a33.79,33.79,0,0,0-5-8.93,21.06,21.06,0,0,0-4.72-4.45c-2.13-1.38-5.08-3.32-5.62-4.17a8.93,8.93,0,0,1-.91-1.8c-.42-1,0-2.7.56-3.75.1-.07.33-.82-.15-.37-1.34,1.28-2.2,2.17-2.53,4.09s.64,3.86.62,4.3-.13.93-.95.64a24.63,24.63,0,0,0-5.4-1.85,25.66,25.66,0,0,0-9.44.08c-5.2,1.26-9.53,3-13.19,5.92a8.53,8.53,0,0,0-1.7,1.54,8,8,0,0,0-.47,2.24c-.71,4.65,0,9.26,1.47,14.41a25.62,25.62,0,0,0,4.65,8.22,24.75,24.75,0,0,0,4.3,3.76c.66.58.29.93-.08,1.15s-2.54.39-4,1.62-1.84,2.44-2.26,4.24c-.15.64.37.06.4-.06.63-1,1.91-2.24,2.95-2.36a9.16,9.16,0,0,1,2-.1c1,0,4.15,1.62,6.42,2.78a20.56,20.56,0,0,0,6.2,1.86,33.71,33.71,0,0,0,10.21-.15c3.87-1,5.79-2.57,5.41-2.82s-5,1.16-10,1.09a26,26,0,0,1-6.54-1.16,19.7,19.7,0,0,1-4-1.46c-.3-.13-2.57-1.18-2.94-1.92s1.34.36,2.43.72,3.94,1.08,5.1,1.43a36.43,36.43,0,0,0,5.61.86,48.47,48.47,0,0,0,11.11-.83c1.24-.09,2.18-1.57,1.87-2s-1.2,0-2.23,0a42.06,42.06,0,0,1-11.24-.07A33.1,33.1,0,0,1,655.51,471c-1-.58-2.14-1.15-3-1.7s-1.82-1.1-2.61-1.7a15.78,15.78,0,0,1-3-3c.08-.43,1.65,1.16,3.91,2.53a45.35,45.35,0,0,0,4.24,2.1,46,46,0,0,0,4.78,1.91,28,28,0,0,0,3.79,1.08c1,.24,2.16.49,3.58.69a46.84,46.84,0,0,0,12.59-.17c.63-.11,1.11-.06,1.36-.73a.84.84,0,0,0-.34-1c-.33-.28-6-.29-8.55-.65a45.45,45.45,0,0,1-7.17-1.31c-1.87-.61-3-1.46-3.17-2s.6,0,1.19.14,2.1.71,3,.87a23.65,23.65,0,0,0,5.78.63,37.19,37.19,0,0,1,4.58.28c1.23,0,3.45.66,3.88.37s0-.93-.39-1.27a10.17,10.17,0,0,0-4.39-1.47c-1.13-.13-4-.54-6.2-.87-5.32-.8-6.35-1.75-7.3-2.55a13.5,13.5,0,0,1-2.92-3.51c-.49-.85-2.25-5.66-1.68-6.66s5.62-1.87,6.6-1.87a13.35,13.35,0,0,1,4.5.78c1.16.42,2.51.84,5.85,5,1.41,1.77,3.18,4,3.85,5a10.29,10.29,0,0,0,3.47,3.07c.5.19,1.27.22,1.29-.3s-1.63-2.13-2.26-3.18a37.41,37.41,0,0,1-2.54-3.83,23.45,23.45,0,0,0-3.43-4.7c-.6-.73-1.84-1.77-2.27-2.2s-1.25-.87-.72-1,1.83.45,3.29,1.77a47.28,47.28,0,0,1,4.72,5.57c1.58,2,4.43,6.93,4.83,7.09a.85.85,0,0,0,1-.19c.45-.54.16-.93-.05-1.54a46.67,46.67,0,0,0-6.15-11,33.11,33.11,0,0,0-2.39-2.76,27.84,27.84,0,0,0-2.82-2.75,46.86,46.86,0,0,0-4-3.19,42.56,42.56,0,0,0-3.94-2.63c-2.32-1.27-4.48-1.84-4.14-2.13a15.35,15.35,0,0,1,4.08,1.07c.91.37,1.86.92,2.79,1.41s2,1.16,3,1.77a33.58,33.58,0,0,1,8.09,7.5,43.07,43.07,0,0,1,5.68,9.71c.51.91.62,1.87,1.09,1.95s1.31-1.48.77-2.61a49.1,49.1,0,0,0-4.84-10,37.71,37.71,0,0,0-3.55-4.44c-.88-.84-2.94-3-3.78-3.71s-2.68-1.69-1.85-1.75,2.88,1.39,3.14,1.6a20,20,0,0,1,3.27,2.75,26.56,26.56,0,0,1,4.27,5.09c2.57,4.33,3.64,9,4,9.22s.79-2.23-.26-6.1">
    </path>
</svg>